<svg width="13" height="14" viewBox="0 0 13 14" fill="none" xmlns="http://www.w3.org/2000/svg">
<path fill-rule="evenodd" clip-rule="evenodd" d="M11.964 5.11022C12.5943 4.62248 13.0002 3.85862 13.0002 2.99998C13.0002 1.52722 11.8063 0.333313 10.3335 0.333313C9.20433 0.333313 8.23908 1.03513 7.85016 2.02635C7.68031 2.00891 7.50795 1.99998 7.3335 1.99998C5.55165 1.99998 3.9875 2.93205 3.102 4.33522C3.06821 4.33395 3.03426 4.33331 3.00016 4.33331C1.5274 4.33331 0.333496 5.52722 0.333496 6.99998C0.333496 8.47274 1.5274 9.66665 3.00016 9.66665C3.03426 9.66665 3.06821 9.66601 3.102 9.66474C3.9875 11.0679 5.55165 12 7.3335 12C7.50795 12 7.68032 11.991 7.85016 11.9736C8.23909 12.9648 9.20433 13.6666 10.3335 13.6666C11.8063 13.6666 13.0002 12.4727 13.0002 11C13.0002 10.1413 12.5943 9.37748 11.964 8.88974C12.2022 8.30673 12.3335 7.66868 12.3335 6.99998C12.3335 6.33128 12.2022 5.69324 11.964 5.11022ZM10.7381 8.36382C10.9072 7.94224 11.0002 7.48197 11.0002 6.99998C11.0002 6.51799 10.9072 6.05773 10.7381 5.63614C10.6062 5.65623 10.4711 5.66665 10.3335 5.66665C8.97951 5.66665 7.86122 4.65755 7.68965 3.35039C7.57245 3.33909 7.45365 3.33331 7.3335 3.33331C6.15532 3.33331 5.10694 3.88899 4.43612 4.75256C5.17625 5.22644 5.66683 6.05592 5.66683 6.99998C5.66683 7.94404 5.17625 8.77352 4.43612 9.2474C5.10694 10.111 6.15532 10.6666 7.3335 10.6666C7.45365 10.6666 7.57246 10.6609 7.68965 10.6496C7.86122 9.34241 8.97951 8.33331 10.3335 8.33331C10.4711 8.33331 10.6062 8.34373 10.7381 8.36382Z" fill="#006281"/>
</svg>
